<svg height="31" viewBox="0 0 32 31" width="32" xmlns="http://www.w3.org/2000/svg"><path d="m30.7 9.5c-1.5-3.7-4.5-6.7-8.2-8.2 1-.8 2.3-1.3 3.6-1.3 3.3 0 5.9 2.6 5.9 5.9 0 1.3-.5 2.6-1.3 3.6zm-.2 6.5c0 3.9-1.5 7.3-4 9.9l2.1 2.1c.2.2.4.6.4 1 0 .8-.7 1.5-1.5 1.5-.4 0-.8-.2-1-.4l-2.2-2.2c-2.4 1.6-5.2 2.6-8.3 2.6s-5.9-1-8.3-2.6l-2.1 2.2c-.3.2-.7.4-1.1.4-.8 0-1.5-.7-1.5-1.5 0-.4.2-.8.4-1.1l2.1-2c-2.5-2.6-4-6.1-4-9.9 0-8 6.5-14.5 14.5-14.5s14.5 6.5 14.5 14.5zm-14.5-11.5c-6.4 0-11.5 5.1-11.5 11.5s5.1 11.5 11.5 11.5 11.5-5.1 11.5-11.5-5.1-11.5-11.5-11.5zm6 13h-6c-.8 0-1.5-.7-1.5-1.5v-8c0-.8.7-1.5 1.5-1.5s1.5.7 1.5 1.5v6.5h4.5c.8 0 1.5.7 1.5 1.5s-.7 1.5-1.5 1.5zm-20.7-7.8c-.8-1-1.3-2.3-1.3-3.7 0-3.3 2.7-6 6-6 1.4 0 2.7.5 3.7 1.3-3.8 1.6-6.8 4.6-8.4 8.4z" fill="#95e1d3" fill-rule="evenodd"/></svg>