<svg height="32" viewBox="0 0 32 32" width="32" xmlns="http://www.w3.org/2000/svg"><path d="m31.1 25.9-14.5 6q-.3.1-.6.1-.3 0-.6-.1l-14.5-6c-.5-.2-.9-.8-.9-1.4v-23c0-.8.7-1.5 1.5-1.5q.3 0 .6.1 0 0 0 0l13.9 5.8 13.9-5.8q0 0 0 0 .3-.1.6-.1c.8 0 1.5.7 1.5 1.5v23c0 .6-.4 1.2-.9 1.4zm-16.6-17.4-11.5-4.8v19.8l11.5 4.8zm14.5-4.8-11.5 4.8v19.7l11.5-4.8zm-9.1 6.9 5.5-2.5q.3-.1.6-.1c.8 0 1.5.7 1.5 1.5 0 .6-.4 1.1-.9 1.4l-5.5 2.5q-.3.1-.6.1c-.8 0-1.5-.7-1.5-1.5 0-.6.4-1.1.9-1.4zm0 5.5 5.5-2.5q.3-.1.6-.1c.8 0 1.5.7 1.5 1.5 0 .6-.4 1.1-.9 1.4l-5.5 2.5q-.3.1-.6.1c-.8 0-1.5-.7-1.5-1.5 0-.6.4-1.1.9-1.4zm0 5.5 5.5-2.5q.3-.1.6-.1c.8 0 1.5.7 1.5 1.5 0 .6-.4 1.1-.9 1.4l-5.5 2.5q-.3.1-.6.1c-.8 0-1.5-.7-1.5-1.5 0-.6.4-1.1.9-1.4zm-13.9-13.6q.3 0 .6.1l5.5 2.5c.5.3.9.8.9 1.4 0 .8-.7 1.5-1.5 1.5q-.3 0-.6-.1l-5.5-2.5c-.5-.3-.9-.8-.9-1.4 0-.8.7-1.5 1.5-1.5zm0 5.5q.3 0 .6.1l5.5 2.5c.5.3.9.8.9 1.4 0 .8-.7 1.5-1.5 1.5q-.3 0-.6-.1l-5.5-2.5c-.5-.3-.9-.8-.9-1.4 0-.8.7-1.5 1.5-1.5zm0 5.5q.3 0 .6.1l5.5 2.5c.5.3.9.8.9 1.4 0 .8-.7 1.5-1.5 1.5q-.3 0-.6-.1l-5.5-2.5c-.5-.3-.9-.8-.9-1.4 0-.8.7-1.5 1.5-1.5z" fill="#95e1d3" fill-rule="evenodd"/></svg>