<svg height="31" viewBox="0 0 32 31" width="32" xmlns="http://www.w3.org/2000/svg"><path d="m32 16.5c0 .8-.7 1.5-1.5 1.5-.4 0-.8-.2-1-.4l-13.5-13.4v-.1l-13.4 13.5c-.3.2-.7.4-1.1.4-.8 0-1.5-.7-1.5-1.5 0-.4.2-.8.5-1.1l14.4-14.4c.3-.3.7-.5 1.1-.5q0 0 0 0 0 0 .1 0 0 0 0 0 0 0 .1 0 0 0 0 0c.3 0 .7.2.9.5l5.9 5.9v-1.4c0-.8.7-1.5 1.5-1.5s1.5.7 1.5 1.5v4.4l5.6 5.6c.2.2.4.6.4 1zm-3 2.5v4.5 2 4c0 .8-.7 1.5-1.5 1.5h-3v-12h-6v12h-14c-.8 0-1.5-.7-1.5-1.5v-4-2-4.5l13-13zm-15.5 0h-6v6h6z" fill="#95e1d3" fill-rule="evenodd"/></svg>