<svg height="32" viewBox="0 0 32 32" width="32" xmlns="http://www.w3.org/2000/svg"><path d="m30.5 32h-29c-.8 0-1.5-.7-1.5-1.5v-29c0-.8.7-1.5 1.5-1.5h29c.8 0 1.5.7 1.5 1.5v29c0 .8-.7 1.5-1.5 1.5zm-1.5-29h-26v26h26zm-22.5 1.5h5.5c.8 0 1.5.7 1.5 1.5s-.7 1.5-1.5 1.5h-4.5v4.5c0 .8-.7 1.5-1.5 1.5s-1.5-.7-1.5-1.5v-5.5-2zm-2 15.5c0-.8.7-1.5 1.5-1.5s1.5.7 1.5 1.5v4.5h4.5c.8 0 1.5.7 1.5 1.5s-.7 1.5-1.5 1.5h-5.5-2v-2zm15.5-15.5h5.5 2v2 5.5c0 .8-.7 1.5-1.5 1.5s-1.5-.7-1.5-1.5v-4.5h-4.5c-.8 0-1.5-.7-1.5-1.5s.7-1.5 1.5-1.5zm0 20h4.5v-4.5c0-.8.7-1.5 1.5-1.5s1.5.7 1.5 1.5v5.5 2h-2-5.5c-.8 0-1.5-.7-1.5-1.5s.7-1.5 1.5-1.5z" fill="#95e1d3" fill-rule="evenodd"/></svg>